<svg width="50" height="50" viewBox="0 0 50 50" fill="none" xmlns="http://www.w3.org/2000/svg">
<g clip-path="url(#clip0_202_87)">
<path d="M34.9438 0.0250219C34.8375 -0.0937281 31.0094 0.071897 27.6781 3.68752C24.3469 7.30002 24.8594 11.4438 24.9344 11.55C25.0094 11.6563 29.6844 11.8219 32.6688 7.61877C35.6531 3.41565 35.05 0.146897 34.9438 0.0250219ZM45.3 36.6906C45.15 36.3906 38.0344 32.8344 38.6969 25.9969C39.3594 19.1563 43.9313 17.2813 44.0031 17.0781C44.075 16.875 42.1375 14.6094 40.0844 13.4625C38.5769 12.6539 36.9085 12.1907 35.2 12.1063C34.8625 12.0969 33.6906 11.8094 31.2813 12.4688C29.6938 12.9031 26.1156 14.3094 25.1313 14.3656C24.1438 14.4219 21.2063 12.7344 18.0469 12.2875C16.025 11.8969 13.8813 12.6969 12.3469 13.3125C10.8156 13.925 7.90314 15.6688 5.86564 20.3031C3.82814 24.9344 4.89376 32.2719 5.65626 34.5531C6.41876 36.8313 7.60939 40.5656 9.63439 43.2906C11.4344 46.3656 13.8219 48.5 14.8188 49.225C15.8156 49.95 18.6281 50.4313 20.5781 49.4344C22.1469 48.4719 24.9781 47.9188 26.0969 47.9594C27.2125 48 29.4125 48.4406 31.6656 49.6438C33.45 50.2594 35.1375 50.0031 36.8281 49.3156C38.5188 48.625 40.9656 46.0063 43.8219 40.6969C44.9063 38.2281 45.4 36.8938 45.3 36.6906Z" fill="white"/>
<path d="M34.9438 0.0250219C34.8375 -0.0937281 31.0094 0.071897 27.6781 3.68752C24.3469 7.30002 24.8594 11.4438 24.9344 11.55C25.0094 11.6563 29.6844 11.8219 32.6688 7.61877C35.6531 3.41565 35.05 0.146897 34.9438 0.0250219ZM45.3 36.6906C45.15 36.3906 38.0344 32.8344 38.6969 25.9969C39.3594 19.1563 43.9313 17.2813 44.0031 17.0781C44.075 16.875 42.1375 14.6094 40.0844 13.4625C38.5769 12.6539 36.9085 12.1907 35.2 12.1063C34.8625 12.0969 33.6906 11.8094 31.2813 12.4688C29.6938 12.9031 26.1156 14.3094 25.1313 14.3656C24.1438 14.4219 21.2063 12.7344 18.0469 12.2875C16.025 11.8969 13.8813 12.6969 12.3469 13.3125C10.8156 13.925 7.90314 15.6688 5.86564 20.3031C3.82814 24.9344 4.89376 32.2719 5.65626 34.5531C6.41876 36.8313 7.60939 40.5656 9.63439 43.2906C11.4344 46.3656 13.8219 48.5 14.8188 49.225C15.8156 49.95 18.6281 50.4313 20.5781 49.4344C22.1469 48.4719 24.9781 47.9188 26.0969 47.9594C27.2125 48 29.4125 48.4406 31.6656 49.6438C33.45 50.2594 35.1375 50.0031 36.8281 49.3156C38.5188 48.625 40.9656 46.0063 43.8219 40.6969C44.9063 38.2281 45.4 36.8938 45.3 36.6906Z" fill="white"/>
</g>
<defs>
<clipPath id="clip0_202_87">
<rect width="50" height="50" fill="white"/>
</clipPath>
</defs>
</svg>
