<svg width="28" height="132" viewBox="0 0 28 132" fill="none" xmlns="http://www.w3.org/2000/svg">
<g clip-path="url(#clip0_1_74)">
<path d="M10.5739 28V14.8616H7V10.1311H10.5739V6.0907C10.5739 2.9157 12.685 0 17.5494 0C19.5189 0 20.9753 0.18354 20.9753 0.18354L20.8606 4.60099C20.8606 4.60099 19.3753 4.58693 17.7545 4.58693C16.0003 4.58693 15.7193 5.37275 15.7193 6.67702V10.1311H21L20.7702 14.8616H15.7193V28H10.5739Z" fill="#B6CCDA"/>
</g>
<path d="M5.81347 112.397C7.22327 112.397 8.36614 111.254 8.36614 109.844C8.36614 108.434 7.22327 107.291 5.81347 107.291C4.40367 107.291 3.2608 108.434 3.2608 109.844C3.2608 111.254 4.40367 112.397 5.81347 112.397Z" fill="#B6CCDA"/>
<path d="M10.7765 114.331V128.493H15.1737V121.489C15.1737 119.641 15.5213 117.852 17.8127 117.852C20.0725 117.852 20.1005 119.965 20.1005 121.606V128.494H24.5V120.728C24.5 116.913 23.6787 113.981 19.2197 113.981C17.0788 113.981 15.6438 115.156 15.057 116.267H14.9975V114.331H10.7765ZM3.61084 114.331H8.01501V128.493H3.61084V114.331Z" fill="#B6CCDA"/>
<path d="M27.5835 57.7599C26.6093 58.1915 25.5628 58.4832 24.4626 58.615C25.5978 57.9358 26.4471 56.8667 26.852 55.6074C25.7855 56.2408 24.6182 56.6867 23.401 56.9257C22.5824 56.0517 21.4982 55.4724 20.3167 55.2777C19.1352 55.0831 17.9224 55.2839 16.8667 55.8491C15.8111 56.4144 14.9715 57.3123 14.4785 58.4035C13.9854 59.4947 13.8664 60.7182 14.14 61.884C11.9789 61.7755 9.86487 61.2138 7.93497 60.2354C6.00506 59.257 4.30245 57.8837 2.93764 56.2047C2.47097 57.0097 2.20264 57.943 2.20264 58.937C2.20212 59.8318 2.42248 60.713 2.84416 61.5022C3.26585 62.2914 3.87583 62.9644 4.61997 63.4614C3.75696 63.4339 2.91299 63.2007 2.15831 62.7812V62.8512C2.15822 64.1062 2.59234 65.3226 3.38702 66.294C4.18169 67.2654 5.28797 67.9319 6.51814 68.1805C5.71755 68.3972 4.8782 68.4291 4.06347 68.2739C4.41055 69.3537 5.08663 70.2981 5.99707 70.9746C6.9075 71.6511 8.00671 72.0261 9.14081 72.0469C7.21561 73.5582 4.83801 74.378 2.39047 74.3744C1.95692 74.3745 1.52373 74.3491 1.09314 74.2985C3.57753 75.8959 6.46954 76.7436 9.42314 76.7404C19.4215 76.7404 24.8873 68.4594 24.8873 61.2774C24.8873 61.044 24.8815 60.8084 24.871 60.575C25.9341 59.8062 26.8519 58.8541 27.5811 57.7634L27.5835 57.7599Z" fill="#B6CCDA"/>
<defs>
<clipPath id="clip0_1_74">
<rect width="14" height="28" fill="white" transform="translate(7)"/>
</clipPath>
</defs>
</svg>
